<svg width="26" height="26" viewBox="0 0 26 26" fill="none" xmlns="http://www.w3.org/2000/svg">
<path fill-rule="evenodd" clip-rule="evenodd" d="M3.75897 3.75897C4.07627 3.44167 4.59072 3.44167 4.90802 3.75897L22.2414 21.0923C22.5587 21.4096 22.5587 21.9241 22.2414 22.2414C21.9241 22.5587 21.4096 22.5587 21.0923 22.2414L3.75897 4.90802C3.44167 4.59072 3.44167 4.07627 3.75897 3.75897Z" fill="#8B8B8B"/>
<path fill-rule="evenodd" clip-rule="evenodd" d="M22.2414 3.75897C22.5587 4.07627 22.5587 4.59072 22.2414 4.90802L4.90802 22.2414C4.59072 22.5587 4.07627 22.5587 3.75897 22.2414C3.44167 21.9241 3.44167 21.4096 3.75897 21.0923L21.0923 3.75897C21.4096 3.44167 21.9241 3.44167 22.2414 3.75897Z" fill="#8B8B8B"/>
</svg>
