<svg width="26" height="26" viewBox="0 0 26 26" fill="none" xmlns="http://www.w3.org/2000/svg">
<path fill-rule="evenodd" clip-rule="evenodd" d="M3.75751 3.75897C4.07481 3.44167 4.58925 3.44167 4.90656 3.75897L22.2399 21.0923C22.5572 21.4096 22.5572 21.9241 22.2399 22.2414C21.9226 22.5587 21.4081 22.5587 21.0908 22.2414L3.75751 4.90802C3.44021 4.59072 3.44021 4.07627 3.75751 3.75897Z" fill="#8B8B8B"/>
<path fill-rule="evenodd" clip-rule="evenodd" d="M22.2399 3.75897C22.5572 4.07627 22.5572 4.59072 22.2399 4.90802L4.90656 22.2414C4.58925 22.5587 4.07481 22.5587 3.75751 22.2414C3.44021 21.9241 3.44021 21.4096 3.75751 21.0923L21.0908 3.75897C21.4081 3.44167 21.9226 3.44167 22.2399 3.75897Z" fill="#8B8B8B"/>
</svg>
